<?xml version="1.0" encoding="UTF-8" standalone="no"?>
<!-- Created with Inkscape (http://www.inkscape.org/) -->

<svg
   width="16"
   height="16"
   viewBox="0 0 4.2333332 4.2333333"
   version="1.1"
   id="svg5"
   inkscape:version="1.2 (dc2aedaf03, 2022-05-15)"
   sodipodi:docname="logo-white.svg"
   xmlns:inkscape="http://www.inkscape.org/namespaces/inkscape"
   xmlns:sodipodi="http://sodipodi.sourceforge.net/DTD/sodipodi-0.dtd"
   xmlns="http://www.w3.org/2000/svg"
   xmlns:svg="http://www.w3.org/2000/svg">
  <sodipodi:namedview
     id="namedview7"
     pagecolor="#000000"
     bordercolor="#000000"
     borderopacity="0.25"
     inkscape:showpageshadow="2"
     inkscape:pageopacity="0"
     inkscape:pagecheckerboard="0"
     inkscape:deskcolor="#d1d1d1"
     inkscape:document-units="px"
     showgrid="false"
     inkscape:zoom="25.913131"
     inkscape:cx="6.4639043"
     inkscape:cy="10.303656"
     inkscape:window-width="2048"
     inkscape:window-height="1089"
     inkscape:window-x="-8"
     inkscape:window-y="-8"
     inkscape:window-maximized="1"
     inkscape:current-layer="layer1" />
  <defs
     id="defs2" />
  <g
     inkscape:groupmode="layer"
     id="layer2"
     inkscape:label="Layer 2"
     style="display:none;fill:#000000">
    <path
       style="fill:#000000;fill-opacity:1;stroke-width:0.264583"
       d="m -0.29610148,-0.55136139 c 0.0179401,0.11791561 -0.0111591,0.23138286 -0.0204208,0.34715347 -0.003257,0.0407115 0.001775,0.0817217 0,0.12252475 -0.001632,0.03755702 -0.008125,0.07477973 -0.0102103,0.11231436 -5.7944e-4,0.01044244 6.641e-4,0.14851485 0,0.15315594 -0.003044,0.0213091 -0.0171477,0.0399873 -0.0204208,0.0612624 -0.003623,0.0235472 0,0.0476485 0,0.0714728 -0.003403,0.0306312 -0.005144,0.0614932 -0.0102103,0.0918936 -0.005159,0.0309515 -0.0167545,0.0607301 -0.0204208,0.0918936 -0.0184187,0.15655888 0.0258474,0.003498 -0.0102103,0.18378712 -0.003594,0.0179724 -0.0171421,0.0330194 -0.0204208,0.051052 -0.007587,0.0417281 2.386e-4,0.0909391 -0.0102103,0.13273514 -0.004445,0.017781 -0.0164449,0.0331602 -0.0204208,0.051052 -0.008883,0.0399729 0.00445,0.0926857 0,0.13273521 -0.001188,0.010697 -0.008875,0.019952 -0.0102103,0.030631 -0.002111,0.016886 0.003691,0.03444 0,0.051052 -0.003302,0.014858 -0.0174358,0.025917 -0.0204208,0.040842 -0.009345,0.046723 0.002643,0.09537 0,0.1429456 -0.00896,0.1612814 -0.024814,0.3600908 -0.0102103,0.5207302 0.004053,0.044582 0.0148683,0.088315 0.0204208,0.1327351 0.0168791,0.1350328 0.0307296,0.2658966 0.0612624,0.3982055 0.0153405,0.066475 0.0323782,0.1365005 0.0408416,0.2042079 0.002532,0.020263 -0.006458,0.041889 0,0.061262 0.003881,0.011642 0.0155869,0.019352 0.0204208,0.030631 0.0127188,0.029677 0.0228002,0.060569 0.0306312,0.091893 0.0120325,0.04813 0,0.1134919 0,0.1633661 0,0.1359099 -0.002798,-0.043782 0.0102103,0.1123146 0.004369,0.05243 -0.0103156,0.1117888 0,0.1633662 0.004221,0.021108 0.0157512,0.04025 0.0204208,0.061262 0.0125541,0.056494 0,0.2083829 0,0.2756808 0,0.096921 -0.009648,0.1996249 0,0.2961012 0.001397,0.013965 0.008661,0.026895 0.0102103,0.040842 0.004558,0.041026 -0.0131916,0.1033713 0,0.1429456 0.003881,0.011642 0.0165402,0.018989 0.0204208,0.030631 0.009174,0.027521 -0.007053,0.06368 0,0.091894 0.001167,0.00467 0.009419,0.00546 0.0102104,0.01021 0.002798,0.016785 -0.004127,0.034543 0,0.051052 0.002976,0.011906 0.0165402,0.018989 0.0204208,0.030631 0.006458,0.019373 0,0.040842 0,0.061262 0,0.078028 -0.015489,0.1580878 0.0408416,0.2144184 0.0254651,0.025466 0.09348421,0.045422 0.12252475,0.061262 0.01742223,0.0095 0.03453958,0.019624 0.0510519839167,0.030631 C 0.01415971,4.6041185 0.02454237,4.6204195 0.04084202,4.6253093 c 0.02766276,0.0083 0.11789542,0.00433 0.15315594,0.01021 0.0597986,0.00997 0.11370359,0.023148 0.17357671,0.030631 0.0494013,0.00618 0.10474457,-0.010758 0.15315594,0 0.0148582,0.0033 0.0262064,0.01624 0.0408416,0.020421 0.0499885,0.014282 0.14893973,0 0.20420793,0 0.2053591,0 0.40791146,-0.01447 0.61262376,-0.030631 0.1640702,-0.012954 0.3262797,-0.00241 0.490099,-0.01021 0.5713916,-0.027209 -0.019975,-0.020421 0.5513614,-0.020421 0.3369432,0 0.6738861,0 1.0108293,0 0.1251201,0 -0.0089,-0.00225 0.1531559,0.01021 0.1153578,0.00887 0.2326891,-0.00306 0.3471534,-0.01021 0.1312257,-0.0082 0.2664772,0 0.3982056,0 0.038869,0 0.084258,0.00638 0.1225246,0 0.066892,-0.01115 -0.00124,-0.00448 0.051052,-0.030631 0.012552,-0.00628 0.029166,-0.00243 0.040842,-0.01021 0.061543,-0.041029 0.1071848,-0.1194932 0.1531559,-0.173577 0.035883,-0.042215 0.074272,-0.082245 0.1123143,-0.1225246 0.019828,-0.020995 0.045243,-0.037233 0.061262,-0.061262 0.018595,-0.027891 0.02585,-0.061912 0.040842,-0.091894 0.093032,-0.1674582 0.012234,-0.015618 0.091893,-0.1837872 0.098399,-0.2077302 0.010271,0.010012 0.081683,-0.2246286 0.00467,-0.015348 0.066504,-0.177709 0.071473,-0.2042081 0.00439,-0.023416 -0.00315,-0.047857 0,-0.071473 0.00371,-0.02782 0.017322,-0.053789 0.020421,-0.081683 0.0079,-0.071116 0.00309,-0.1432195 0.01021,-0.2144183 C 5.1984413,3.0394216 5.2046853,2.9233161 5.2175123,2.807859 5.2298052,2.697236 5.2519974,2.5834276 5.2379332,2.4709158 5.221978,2.3432755 5.1975884,2.2074332 5.1664605,2.0829208 5.1552329,2.0380108 5.1346975,1.9955788 5.1256189,1.9501856 5.0953167,1.7986748 5.0930788,1.642536 5.0643564,1.4907178 5.0583544,1.4589925 5.0380878,1.4308163 5.0337251,1.3988242 5.0175712,1.2803625 5.016297,1.1602872 5.003094,1.0414604 4.999261,1.006964 4.9873627,0.97374682 4.9826732,0.93935641 4.9706376,0.85109605 4.9594394,0.76265565 4.9520421,0.67388612 c -0.00782,-0.093849 0,-0.19161561 0,-0.28589107 0,-0.20745983 -0.00323,-0.42052514 -0.091894,-0.61262376 -0.00813,-0.0176183 -0.046157,-0.0950505 -0.061262,-0.11231435 -0.048199,-0.0550849 -0.1821768,-0.12879496 -0.2552597,-0.15315594 -0.01964,-0.006547 -0.04129,-0.004763 -0.061262,-0.0102105 -0.017682,-0.004823 -0.034035,-0.0136139 -0.051052,-0.0204208 -0.020421,-0.003403 -0.041178,-0.005189 -0.061262,-0.0102103 -0.020884,-0.005221 -0.04003,-0.016882 -0.061262,-0.0204208 C 4.2448324,-0.5620207 4.1590178,-0.5559504 4.09437,-0.5615717 4.04306,-0.5660337 3.9925398,-0.5777153 3.9412141,-0.5819925 c -0.064442,-0.00537 -0.1294212,0.003399 -0.1939975,0 -0.030777,-0.001619 -0.061121,-0.008501 -0.091894,-0.0102103 -0.1417558,-0.007875 -0.2866773,0 -0.4288364,0 -0.091894,0 -0.1837872,0 -0.2756807,0 -0.1612392,0 -0.329265,0.0114882 -0.4900991,0 -0.0413,-0.00295 -0.081275,-0.0168339 -0.1225247,-0.0204208 -0.1007243,-0.008759 -0.2057565,9.6308e-4 -0.3063119,-0.0102103 -0.031187,-0.003465 -0.06083,-0.0159832 -0.091894,-0.0204208 -0.040571,-0.005796 -0.081858,-0.005127 -0.1225247,-0.0102105 -0.179935,-0.022492 -0.064451,-0.0216014 -0.2450495,-0.0306312 -0.027194,-0.00136 -0.054895,0.004871 -0.081683,0 -0.012074,-0.002196 -0.018989,-0.0165402 -0.030631,-0.0204208 -0.010673,-0.003558 -0.1447425,0.007406 -0.1531559,0.0102103 -0.00722,0.002408 -0.0034,0.0170175 -0.010211,0.0204208 -0.016239,0.008119 -0.051052,-0.0148087 -0.051052,0.0102103"
       id="path573" />
  </g>
  <g
     inkscape:label="Layer 1"
     inkscape:groupmode="layer"
     id="layer1"
     style="display:inline">
    <text
       xml:space="preserve"
       style="font-size:4.58611px;display:inline;fill:#ffffff;stroke-width:0.264583;fill-opacity:1"
       x="0.36697268"
       y="3.4961541"
       id="text63"><tspan
         sodipodi:role="line"
         id="tspan61"
         style="font-style:normal;font-variant:normal;font-weight:bold;font-stretch:normal;font-size:4.58611px;font-family:Gadugi;-inkscape-font-specification:'Gadugi Bold';stroke-width:0.264583;fill:#ffffff;fill-opacity:1"
         x="0.36697268"
         y="3.4961541">;3</tspan></text>
  </g>
</svg>
