<?xml version="1.0" encoding="UTF-8" standalone="no"?>
<!DOCTYPE svg PUBLIC "-//W3C//DTD SVG 20010904//EN"
              "http://www.w3.org/TR/2001/REC-SVG-20010904/DTD/svg10.dtd">

<svg xmlns="http://www.w3.org/2000/svg"
     width="0.0533333in" height="0.0533333in"
     viewBox="0 0 16 16">
  <path id="Selection"
        fill="none" stroke="black" stroke-width="1"
        d="M 8.00,3.00
           C 9.35,3.04 11.33,2.94 12.55,3.57
             15.17,4.64 15.64,9.08 13.40,10.87
             12.06,11.97 9.63,11.94 8.00,12.00
             8.00,12.00 8.00,10.00 8.00,10.00
             8.00,10.00 12.00,10.00 12.00,10.00
             12.00,10.00 10.00,8.00 10.00,8.00
             10.00,8.00 10.00,7.00 10.00,7.00
             10.00,7.00 12.00,5.00 12.00,5.00
             12.00,5.00 8.00,5.00 8.00,5.00
             8.00,5.00 8.00,3.00 8.00,3.00 Z
           M 3.00,10.00
           C 3.00,10.00 6.00,10.00 6.00,10.00
             6.00,10.00 2.00,14.00 2.00,14.00
             2.00,14.00 3.00,10.00 3.00,10.00 Z
           M 13.82,5.00M 3.00,5.02
           C 3.00,5.02 4.93,5.00 4.93,5.00
             4.93,5.00 4.89,7.00 4.89,7.00
             4.89,7.00 3.04,7.02 3.04,7.02
             3.04,7.02 3.00,5.02 3.00,5.02" />
</svg>
